<?xml version="1.0" encoding="UTF-8"?>
<svg xmlns="http://www.w3.org/2000/svg" xmlns:xlink="http://www.w3.org/1999/xlink" width="675pt" height="74.999997pt" viewBox="0 0 675 74.999997" version="1.2">
<defs>
<clipPath id="clip1">
  <path d="M 46 18.792969 L 84.765625 18.792969 L 84.765625 56.28125 L 46 56.28125 Z M 46 18.792969 "/>
</clipPath>
<clipPath id="clip2">
  <path d="M 221 18.765625 L 260 18.765625 L 260 56.265625 L 221 56.265625 Z M 221 18.765625 "/>
</clipPath>
<clipPath id="clip3">
  <path d="M 590.367188 22.5 L 629.875 22.5 L 629.875 52.5 L 590.367188 52.5 Z M 590.367188 22.5 "/>
</clipPath>
<clipPath id="clip4">
  <path d="M 590.367188 22.5 L 596 22.5 L 596 52.5 L 590.367188 52.5 Z M 590.367188 22.5 "/>
</clipPath>
<clipPath id="clip5">
  <path d="M 624 22.5 L 629.875 22.5 L 629.875 52.5 L 624 52.5 Z M 624 22.5 "/>
</clipPath>
<clipPath id="clip6">
  <path d="M 590.367188 22.5 L 629.875 22.5 L 629.875 41 L 590.367188 41 Z M 590.367188 22.5 "/>
</clipPath>
<clipPath id="clip7">
  <path d="M 593 22.5 L 628 22.5 L 628 35 L 593 35 Z M 593 22.5 "/>
</clipPath>
<clipPath id="clip8">
  <path d="M 595 31 L 608 31 L 608 52.5 L 595 52.5 Z M 595 31 "/>
</clipPath>
<clipPath id="clip9">
  <path d="M 595 30 L 611 30 L 611 44 L 595 44 Z M 595 30 "/>
</clipPath>
<clipPath id="clip10">
  <path d="M 607.421875 43.066406 L 610.121094 40.941406 L 595.550781 30.203125 L 595.550781 31.15625 L 607.421875 43.0625 Z M 607.421875 43.066406 "/>
</clipPath>
<linearGradient id="linear0" gradientUnits="userSpaceOnUse" x1="-261.914147" y1="1097.14697" x2="-261.679039" y2="1097.14697" gradientTransform="matrix(61.971865,0,0,-62.741567,16826.85834,68873.451245)">
<stop offset="0" style="stop-color:rgb(78.399658%,78.399658%,78.399658%);stop-opacity:1;"/>
<stop offset="0.125" style="stop-color:rgb(78.523254%,78.523254%,78.523254%);stop-opacity:1;"/>
<stop offset="0.25" style="stop-color:rgb(78.773499%,78.773499%,78.773499%);stop-opacity:1;"/>
<stop offset="0.375" style="stop-color:rgb(79.023743%,79.023743%,79.023743%);stop-opacity:1;"/>
<stop offset="0.5" style="stop-color:rgb(79.273987%,79.273987%,79.273987%);stop-opacity:1;"/>
<stop offset="0.625" style="stop-color:rgb(79.522705%,79.522705%,79.522705%);stop-opacity:1;"/>
<stop offset="0.75" style="stop-color:rgb(79.772949%,79.772949%,79.772949%);stop-opacity:1;"/>
<stop offset="0.875" style="stop-color:rgb(80.023193%,80.023193%,80.023193%);stop-opacity:1;"/>
<stop offset="1" style="stop-color:rgb(80.273438%,80.273438%,80.273438%);stop-opacity:1;"/>
</linearGradient>
<clipPath id="clip11">
  <path d="M 607 30 L 625 30 L 625 52.5 L 607 52.5 Z M 607 30 "/>
</clipPath>
<clipPath id="clip12">
  <path d="M 616.644531 52.417969 L 624.691406 52.417969 L 624.691406 30.203125 L 610.121094 40.941406 L 607.421875 43.0625 Z M 616.644531 52.417969 "/>
</clipPath>
<linearGradient id="linear1" gradientUnits="userSpaceOnUse" x1="-261.722591" y1="1097.073" x2="-261.443906" y2="1097.073" gradientTransform="matrix(61.971865,0,0,-62.741567,16826.85834,68873.451245)">
<stop offset="0" style="stop-color:rgb(85.099792%,85.099792%,85.099792%);stop-opacity:1;"/>
<stop offset="0.0625" style="stop-color:rgb(85.205078%,85.205078%,85.205078%);stop-opacity:1;"/>
<stop offset="0.125" style="stop-color:rgb(85.420227%,85.420227%,85.420227%);stop-opacity:1;"/>
<stop offset="0.1875" style="stop-color:rgb(85.639954%,85.639954%,85.639954%);stop-opacity:1;"/>
<stop offset="0.25" style="stop-color:rgb(85.858154%,85.858154%,85.858154%);stop-opacity:1;"/>
<stop offset="0.3125" style="stop-color:rgb(86.077881%,86.077881%,86.077881%);stop-opacity:1;"/>
<stop offset="0.375" style="stop-color:rgb(86.297607%,86.297607%,86.297607%);stop-opacity:1;"/>
<stop offset="0.4375" style="stop-color:rgb(86.517334%,86.517334%,86.517334%);stop-opacity:1;"/>
<stop offset="0.5" style="stop-color:rgb(86.735535%,86.735535%,86.735535%);stop-opacity:1;"/>
<stop offset="0.5625" style="stop-color:rgb(86.955261%,86.955261%,86.955261%);stop-opacity:1;"/>
<stop offset="0.625" style="stop-color:rgb(87.174988%,87.174988%,87.174988%);stop-opacity:1;"/>
<stop offset="0.6875" style="stop-color:rgb(87.394714%,87.394714%,87.394714%);stop-opacity:1;"/>
<stop offset="0.75" style="stop-color:rgb(87.612915%,87.612915%,87.612915%);stop-opacity:1;"/>
<stop offset="0.8125" style="stop-color:rgb(87.832642%,87.832642%,87.832642%);stop-opacity:1;"/>
<stop offset="0.875" style="stop-color:rgb(88.052368%,88.052368%,88.052368%);stop-opacity:1;"/>
<stop offset="0.9375" style="stop-color:rgb(88.270569%,88.270569%,88.270569%);stop-opacity:1;"/>
<stop offset="1" style="stop-color:rgb(88.48877%,88.48877%,88.48877%);stop-opacity:1;"/>
</linearGradient>
<clipPath id="clip13">
  <path d="M 414 18.765625 L 453 18.765625 L 453 56.265625 L 414 56.265625 Z M 414 18.765625 "/>
</clipPath>
<clipPath id="clip14">
  <path d="M 425 26 L 442 26 L 442 56.265625 L 425 56.265625 Z M 425 26 "/>
</clipPath>
</defs>
<g id="surface1">
<rect x="0" y="0" width="675" height="74.999997" style="fill:rgb(100%,100%,100%);fill-opacity:1;stroke:none;"/>
<rect x="0" y="0" width="675" height="74.999997" style="fill:rgb(100%,100%,100%);fill-opacity:1;stroke:none;"/>
<rect x="0" y="0" width="675" height="74.999997" style="fill:rgb(100%,100%,100%);fill-opacity:1;stroke:none;"/>
<g clip-path="url(#clip1)" clip-rule="nonzero">
<path style=" stroke:none;fill-rule:nonzero;fill:rgb(9.799194%,46.269226%,82.348633%);fill-opacity:1;" d="M 65.050781 18.792969 C 64.429688 18.792969 63.808594 18.820312 63.1875 18.882812 C 62.566406 18.941406 61.953125 19.03125 61.339844 19.152344 C 60.730469 19.269531 60.128906 19.417969 59.53125 19.597656 C 58.9375 19.773438 58.351562 19.980469 57.777344 20.214844 C 57.199219 20.449219 56.636719 20.710938 56.089844 21 C 55.539062 21.289062 55.007812 21.601562 54.488281 21.941406 C 53.972656 22.28125 53.472656 22.648438 52.992188 23.035156 C 52.507812 23.425781 52.046875 23.835938 51.609375 24.269531 C 51.167969 24.699219 50.75 25.152344 50.355469 25.628906 C 49.960938 26.101562 49.589844 26.59375 49.242188 27.101562 C 48.898438 27.609375 48.578125 28.136719 48.285156 28.675781 C 47.992188 29.214844 47.726562 29.769531 47.488281 30.332031 C 47.25 30.898438 47.039062 31.476562 46.859375 32.0625 C 46.679688 32.648438 46.527344 33.242188 46.40625 33.839844 C 46.285156 34.441406 46.191406 35.046875 46.132812 35.65625 C 46.070312 36.265625 46.039062 36.875 46.039062 37.488281 C 46.039062 38.101562 46.070312 38.710938 46.132812 39.320312 C 46.191406 39.929688 46.285156 40.535156 46.40625 41.136719 C 46.527344 41.738281 46.679688 42.332031 46.859375 42.917969 C 47.039062 43.503906 47.25 44.078125 47.488281 44.644531 C 47.726562 45.210938 47.992188 45.761719 48.285156 46.300781 C 48.578125 46.84375 48.898438 47.367188 49.242188 47.875 C 49.589844 48.386719 49.960938 48.875 50.355469 49.351562 C 50.75 49.824219 51.167969 50.277344 51.609375 50.710938 C 52.046875 51.144531 52.507812 51.554688 52.992188 51.941406 C 53.472656 52.332031 53.972656 52.695312 54.488281 53.035156 C 55.007812 53.375 55.539062 53.691406 56.089844 53.976562 C 56.636719 54.265625 57.199219 54.527344 57.777344 54.761719 C 58.351562 54.996094 58.9375 55.203125 59.53125 55.382812 C 60.128906 55.558594 60.730469 55.707031 61.339844 55.828125 C 61.953125 55.945312 62.566406 56.035156 63.1875 56.097656 C 63.808594 56.15625 64.429688 56.1875 65.050781 56.1875 C 65.671875 56.1875 66.292969 56.15625 66.914062 56.097656 C 67.535156 56.035156 68.148438 55.945312 68.757812 55.828125 C 69.371094 55.707031 69.972656 55.558594 70.570312 55.382812 C 71.164062 55.203125 71.75 54.996094 72.324219 54.761719 C 72.902344 54.527344 73.460938 54.265625 74.011719 53.976562 C 74.5625 53.691406 75.09375 53.375 75.613281 53.035156 C 76.128906 52.695312 76.628906 52.332031 77.109375 51.941406 C 77.59375 51.554688 78.050781 51.144531 78.492188 50.710938 C 78.933594 50.277344 79.351562 49.824219 79.746094 49.351562 C 80.140625 48.875 80.511719 48.386719 80.855469 47.875 C 81.203125 47.367188 81.523438 46.84375 81.816406 46.300781 C 82.109375 45.761719 82.375 45.210938 82.613281 44.644531 C 82.851562 44.078125 83.0625 43.503906 83.242188 42.917969 C 83.421875 42.332031 83.574219 41.738281 83.695312 41.136719 C 83.816406 40.535156 83.910156 39.929688 83.96875 39.320312 C 84.03125 38.710938 84.0625 38.101562 84.0625 37.488281 C 84.0625 36.875 84.03125 36.265625 83.96875 35.65625 C 83.910156 35.046875 83.816406 34.441406 83.695312 33.839844 C 83.574219 33.242188 83.421875 32.648438 83.242188 32.0625 C 83.0625 31.476562 82.851562 30.898438 82.613281 30.332031 C 82.375 29.769531 82.109375 29.214844 81.816406 28.675781 C 81.523438 28.136719 81.203125 27.609375 80.855469 27.101562 C 80.511719 26.59375 80.140625 26.101562 79.746094 25.628906 C 79.351562 25.152344 78.933594 24.699219 78.492188 24.269531 C 78.050781 23.835938 77.59375 23.425781 77.109375 23.035156 C 76.628906 22.648438 76.128906 22.28125 75.613281 21.941406 C 75.09375 21.601562 74.5625 21.289062 74.011719 21 C 73.460938 20.710938 72.902344 20.449219 72.324219 20.214844 C 71.75 19.980469 71.164062 19.773438 70.570312 19.597656 C 69.972656 19.417969 69.371094 19.269531 68.757812 19.152344 C 68.148438 19.03125 67.535156 18.941406 66.914062 18.882812 C 66.292969 18.820312 65.671875 18.792969 65.050781 18.792969 Z M 65.050781 18.792969 "/>
</g>
<path style=" stroke:none;fill-rule:nonzero;fill:rgb(100%,100%,100%);fill-opacity:1;" d="M 76.398438 31.917969 C 76.441406 31.777344 76.460938 31.644531 76.457031 31.527344 C 76.441406 31.191406 76.203125 30.945312 75.648438 30.945312 L 73.160156 30.945312 C 72.53125 30.945312 72.242188 31.320312 72.070312 31.695312 C 72.070312 31.695312 70.519531 34.832031 68.734375 36.90625 C 68.152344 37.503906 67.859375 37.488281 67.542969 37.488281 C 67.375 37.488281 66.953125 37.289062 66.953125 36.738281 L 66.953125 31.894531 C 66.953125 31.242188 66.785156 30.945312 66.253906 30.945312 L 61.835938 30.945312 C 61.449219 30.945312 61.25 31.242188 61.25 31.542969 C 61.25 32.167969 62.101562 32.316406 62.199219 34.0625 L 62.199219 37.453125 C 62.199219 38.273438 62.054688 38.421875 61.738281 38.421875 C 60.894531 38.421875 59.226562 35.617188 58.113281 31.941406 C 57.871094 31.21875 57.628906 30.945312 57.003906 30.945312 L 54.488281 30.945312 C 53.765625 30.945312 53.644531 31.292969 53.644531 31.667969 C 53.644531 32.34375 54.214844 35.988281 57.328125 40.175781 C 59.585938 43.214844 62.558594 44.96875 65.191406 44.96875 C 66.785156 44.96875 66.949219 44.570312 66.949219 43.945312 L 66.949219 41.167969 C 66.953125 40.417969 67.125 40.292969 67.632812 40.292969 C 67.996094 40.292969 68.734375 40.527344 70.160156 42.164062 C 71.804688 44.050781 72.101562 44.96875 73.046875 44.96875 L 75.535156 44.96875 C 76.113281 44.96875 76.445312 44.730469 76.457031 44.265625 C 76.460938 44.148438 76.441406 44.015625 76.402344 43.871094 C 76.21875 43.332031 75.375 42.015625 74.316406 40.761719 C 73.734375 40.066406 73.15625 39.378906 72.890625 39.003906 C 72.714844 38.761719 72.644531 38.589844 72.65625 38.421875 C 72.664062 38.25 72.753906 38.085938 72.890625 37.855469 C 72.867188 37.855469 76.082031 33.414062 76.398438 31.917969 Z M 76.398438 31.917969 "/>
<g clip-path="url(#clip2)" clip-rule="nonzero">
<path style=" stroke:none;fill-rule:nonzero;fill:rgb(1.179504%,66.268921%,95.689392%);fill-opacity:1;" d="M 240.414062 18.765625 C 239.792969 18.765625 239.171875 18.796875 238.550781 18.855469 C 237.929688 18.917969 237.3125 19.007812 236.703125 19.125 C 236.089844 19.246094 235.488281 19.394531 234.890625 19.574219 C 234.292969 19.75 233.707031 19.957031 233.132812 20.191406 C 232.554688 20.425781 231.992188 20.6875 231.445312 20.976562 C 230.894531 21.265625 230.359375 21.582031 229.84375 21.921875 C 229.324219 22.261719 228.824219 22.628906 228.339844 23.015625 C 227.859375 23.40625 227.398438 23.816406 226.957031 24.25 C 226.515625 24.683594 226.097656 25.136719 225.703125 25.609375 C 225.308594 26.085938 224.9375 26.578125 224.589844 27.085938 C 224.246094 27.597656 223.925781 28.121094 223.628906 28.664062 C 223.335938 29.203125 223.070312 29.757812 222.832031 30.324219 C 222.59375 30.890625 222.382812 31.464844 222.203125 32.054688 C 222.023438 32.640625 221.871094 33.234375 221.75 33.835938 C 221.628906 34.4375 221.535156 35.042969 221.476562 35.652344 C 221.414062 36.261719 221.382812 36.875 221.382812 37.488281 C 221.382812 38.101562 221.414062 38.710938 221.476562 39.324219 C 221.535156 39.933594 221.628906 40.539062 221.75 41.140625 C 221.871094 41.742188 222.023438 42.335938 222.203125 42.921875 C 222.382812 43.507812 222.59375 44.085938 222.832031 44.652344 C 223.070312 45.21875 223.335938 45.773438 223.628906 46.3125 C 223.925781 46.851562 224.246094 47.378906 224.589844 47.886719 C 224.9375 48.398438 225.308594 48.890625 225.703125 49.363281 C 226.097656 49.835938 226.515625 50.292969 226.957031 50.726562 C 227.398438 51.160156 227.859375 51.570312 228.339844 51.957031 C 228.824219 52.347656 229.324219 52.710938 229.84375 53.054688 C 230.359375 53.394531 230.894531 53.707031 231.445312 53.996094 C 231.992188 54.285156 232.554688 54.546875 233.132812 54.785156 C 233.707031 55.019531 234.292969 55.222656 234.890625 55.402344 C 235.488281 55.582031 236.089844 55.730469 236.703125 55.847656 C 237.3125 55.96875 237.929688 56.058594 238.550781 56.117188 C 239.171875 56.179688 239.792969 56.207031 240.414062 56.207031 C 241.039062 56.207031 241.660156 56.179688 242.28125 56.117188 C 242.902344 56.058594 243.515625 55.96875 244.128906 55.847656 C 244.738281 55.730469 245.34375 55.582031 245.941406 55.402344 C 246.535156 55.222656 247.121094 55.019531 247.699219 54.785156 C 248.273438 54.546875 248.835938 54.285156 249.386719 53.996094 C 249.9375 53.707031 250.472656 53.394531 250.988281 53.054688 C 251.507812 52.710938 252.007812 52.347656 252.488281 51.957031 C 252.972656 51.570312 253.433594 51.160156 253.875 50.726562 C 254.3125 50.292969 254.730469 49.835938 255.128906 49.363281 C 255.523438 48.890625 255.894531 48.398438 256.238281 47.886719 C 256.585938 47.378906 256.90625 46.851562 257.199219 46.3125 C 257.492188 45.773438 257.761719 45.21875 258 44.652344 C 258.238281 44.085938 258.445312 43.507812 258.628906 42.921875 C 258.808594 42.335938 258.960938 41.742188 259.082031 41.140625 C 259.203125 40.539062 259.292969 39.933594 259.355469 39.324219 C 259.417969 38.710938 259.449219 38.101562 259.449219 37.488281 C 259.449219 36.875 259.417969 36.261719 259.355469 35.652344 C 259.292969 35.042969 259.203125 34.4375 259.082031 33.835938 C 258.960938 33.234375 258.808594 32.640625 258.628906 32.054688 C 258.445312 31.464844 258.238281 30.890625 258 30.324219 C 257.761719 29.757812 257.492188 29.203125 257.199219 28.664062 C 256.90625 28.121094 256.585938 27.597656 256.238281 27.085938 C 255.894531 26.578125 255.523438 26.085938 255.128906 25.609375 C 254.730469 25.136719 254.3125 24.683594 253.875 24.25 C 253.433594 23.816406 252.972656 23.40625 252.488281 23.015625 C 252.007812 22.628906 251.507812 22.261719 250.988281 21.921875 C 250.472656 21.582031 249.9375 21.265625 249.386719 20.976562 C 248.835938 20.6875 248.273438 20.425781 247.699219 20.191406 C 247.121094 19.957031 246.535156 19.75 245.941406 19.574219 C 245.34375 19.394531 244.738281 19.246094 244.128906 19.125 C 243.515625 19.007812 242.902344 18.917969 242.28125 18.855469 C 241.660156 18.796875 241.039062 18.765625 240.414062 18.765625 Z M 240.414062 18.765625 "/>
</g>
<path style=" stroke:none;fill-rule:nonzero;fill:rgb(100%,100%,100%);fill-opacity:1;" d="M 251.835938 31.046875 C 250.996094 31.414062 249.933594 31.757812 248.980469 31.871094 C 249.949219 31.304688 251.484375 30.128906 251.835938 29.0625 C 250.929688 29.585938 249.292969 30.144531 248.226562 30.347656 C 247.371094 29.457031 246.15625 29.0625 244.808594 29.0625 C 242.222656 29.0625 240.414062 31.21875 240.414062 33.742188 L 240.414062 35.617188 C 236.609375 35.617188 232.898438 32.761719 230.589844 30 C 230.183594 30.675781 229.953125 31.464844 229.953125 32.300781 C 229.953125 34 231.542969 35.730469 232.804688 36.550781 C 232.035156 36.527344 230.582031 35.953125 229.949219 35.617188 C 229.949219 35.628906 229.949219 35.648438 229.949219 35.667969 C 229.949219 37.882812 231.527344 39.386719 233.671875 39.808594 C 233.28125 39.914062 232.804688 40.296875 230.96875 40.296875 C 231.5625 42.105469 234.558594 43.0625 236.609375 43.105469 C 235.003906 44.328125 232.144531 44.976562 229.949219 44.976562 C 229.566406 44.976562 229.363281 44.996094 228.996094 44.953125 C 231.070312 46.246094 233.964844 46.847656 236.609375 46.847656 C 245.226562 46.847656 249.929688 40.371094 249.929688 34.332031 C 249.929688 34.132812 249.925781 33.46875 249.914062 33.273438 C 250.835938 32.636719 251.207031 31.96875 251.835938 31.046875 "/>
<g clip-path="url(#clip3)" clip-rule="nonzero">
<path style=" stroke:none;fill-rule:nonzero;fill:rgb(91.758728%,91.758728%,91.758728%);fill-opacity:1;" d="M 627.121094 52.417969 L 593.121094 52.417969 C 591.78125 52.417969 590.691406 51.316406 590.691406 49.957031 L 590.691406 25.371094 C 590.691406 24.011719 591.78125 22.910156 593.121094 22.910156 L 627.121094 22.910156 C 628.460938 22.910156 629.550781 24.011719 629.550781 25.371094 L 629.550781 49.957031 C 629.550781 51.316406 628.460938 52.417969 627.121094 52.417969 Z M 627.121094 52.417969 "/>
</g>
<g clip-path="url(#clip4)" clip-rule="nonzero">
<path style=" stroke:none;fill-rule:nonzero;fill:rgb(83.529663%,29.798889%,24.708557%);fill-opacity:1;" d="M 595.546875 52.417969 L 593.121094 52.417969 C 591.78125 52.417969 590.691406 51.316406 590.691406 49.957031 L 590.691406 25.371094 C 590.691406 24.011719 591.78125 22.910156 593.121094 22.910156 C 594.460938 22.910156 595.546875 24.011719 595.546875 25.371094 Z M 595.546875 52.417969 "/>
</g>
<g clip-path="url(#clip5)" clip-rule="nonzero">
<path style=" stroke:none;fill-rule:nonzero;fill:rgb(71.369934%,20.779419%,14.118958%);fill-opacity:1;" d="M 624.691406 52.417969 L 627.121094 52.417969 C 628.460938 52.417969 629.550781 51.316406 629.550781 49.957031 L 629.550781 25.371094 C 629.550781 24.011719 628.460938 22.910156 627.121094 22.910156 C 625.78125 22.910156 624.691406 24.011719 624.691406 25.371094 Z M 624.691406 52.417969 "/>
</g>
<g clip-path="url(#clip6)" clip-rule="nonzero">
<path style=" stroke:none;fill-rule:nonzero;fill:rgb(87.059021%,31.759644%,27.059937%);fill-opacity:1;" d="M 628.511719 27.386719 C 629.609375 26.609375 629.878906 25.074219 629.113281 23.960938 C 628.34375 22.847656 626.828125 22.578125 625.730469 23.355469 L 610.121094 34.859375 L 610.117188 34.859375 L 594.511719 23.355469 C 593.410156 22.578125 591.898438 22.847656 591.128906 23.960938 C 590.359375 25.074219 590.628906 26.609375 591.730469 27.386719 L 591.664062 27.339844 L 610.121094 40.941406 Z M 628.578125 27.339844 L 610.121094 40.941406 Z M 628.578125 27.339844 "/>
</g>
<g clip-path="url(#clip7)" clip-rule="nonzero">
<path style=" stroke:none;fill-rule:nonzero;fill:rgb(93.728638%,93.728638%,93.728638%);fill-opacity:1;" d="M 627.121094 22.910156 C 626.605469 22.910156 626.125 23.074219 625.730469 23.355469 L 610.121094 34.859375 L 610.117188 34.859375 L 594.511719 23.355469 C 594.105469 23.066406 593.617188 22.910156 593.121094 22.910156 Z M 627.121094 22.910156 "/>
</g>
<path style=" stroke:none;fill-rule:nonzero;fill:rgb(77.648926%,25.489807%,19.60907%);fill-opacity:1;" d="M 595.550781 31.261719 L 591.457031 27.15625 L 591.457031 27.160156 C 591.542969 27.242188 591.632812 27.316406 591.730469 27.386719 L 591.664062 27.339844 L 595.550781 30.203125 L 595.550781 31.289062 Z M 595.550781 31.261719 "/>
<g clip-path="url(#clip8)" clip-rule="nonzero">
<path style=" stroke:none;fill-rule:nonzero;fill:rgb(89.019775%,89.019775%,89.019775%);fill-opacity:1;" d="M 607.421875 43.066406 L 595.546875 52.417969 L 595.550781 31.160156 L 607.421875 43.0625 Z M 607.421875 43.066406 "/>
</g>
<g clip-path="url(#clip9)" clip-rule="nonzero">
<g clip-path="url(#clip10)" clip-rule="nonzero">
<path style=" stroke:none;fill-rule:nonzero;fill:url(#linear0);" d="M 595.550781 43.066406 L 595.550781 30.203125 L 610.121094 30.203125 L 610.121094 43.066406 Z M 595.550781 43.066406 "/>
</g>
</g>
<g clip-path="url(#clip11)" clip-rule="nonzero">
<g clip-path="url(#clip12)" clip-rule="nonzero">
<path style=" stroke:none;fill-rule:nonzero;fill:url(#linear1);" d="M 607.421875 52.417969 L 607.421875 30.203125 L 624.691406 30.203125 L 624.691406 52.417969 Z M 607.421875 52.417969 "/>
</g>
</g>
<g clip-path="url(#clip13)" clip-rule="nonzero">
<path style=" stroke:none;fill-rule:nonzero;fill:rgb(1.179504%,60.778809%,89.7995%);fill-opacity:1;" d="M 433.386719 18.765625 C 432.765625 18.765625 432.144531 18.796875 431.527344 18.855469 C 430.90625 18.917969 430.292969 19.007812 429.683594 19.125 C 429.074219 19.246094 428.472656 19.394531 427.875 19.574219 C 427.28125 19.75 426.695312 19.957031 426.121094 20.191406 C 425.546875 20.425781 424.988281 20.6875 424.4375 20.976562 C 423.890625 21.265625 423.359375 21.582031 422.839844 21.921875 C 422.324219 22.261719 421.824219 22.625 421.34375 23.015625 C 420.863281 23.40625 420.402344 23.816406 419.964844 24.25 C 419.523438 24.683594 419.105469 25.136719 418.710938 25.609375 C 418.316406 26.085938 417.949219 26.574219 417.601562 27.085938 C 417.257812 27.59375 416.9375 28.121094 416.644531 28.660156 C 416.351562 29.203125 416.085938 29.753906 415.847656 30.320312 C 415.609375 30.886719 415.402344 31.464844 415.222656 32.050781 C 415.039062 32.636719 414.890625 33.230469 414.769531 33.832031 C 414.648438 34.433594 414.554688 35.039062 414.496094 35.648438 C 414.433594 36.261719 414.402344 36.871094 414.402344 37.484375 C 414.402344 38.097656 414.433594 38.710938 414.496094 39.320312 C 414.554688 39.929688 414.648438 40.535156 414.769531 41.136719 C 414.890625 41.738281 415.039062 42.332031 415.222656 42.917969 C 415.402344 43.503906 415.609375 44.082031 415.847656 44.648438 C 416.085938 45.214844 416.351562 45.769531 416.644531 46.308594 C 416.9375 46.847656 417.257812 47.375 417.601562 47.882812 C 417.949219 48.394531 418.316406 48.886719 418.710938 49.359375 C 419.105469 49.832031 419.523438 50.289062 419.964844 50.722656 C 420.402344 51.15625 420.863281 51.566406 421.34375 51.953125 C 421.824219 52.34375 422.324219 52.707031 422.839844 53.046875 C 423.359375 53.390625 423.890625 53.703125 424.4375 53.992188 C 424.988281 54.28125 425.546875 54.542969 426.121094 54.777344 C 426.695312 55.011719 427.28125 55.21875 427.875 55.398438 C 428.472656 55.574219 429.074219 55.722656 429.683594 55.84375 C 430.292969 55.964844 430.90625 56.054688 431.527344 56.113281 C 432.144531 56.171875 432.765625 56.203125 433.386719 56.203125 C 434.007812 56.203125 434.628906 56.171875 435.25 56.113281 C 435.867188 56.054688 436.480469 55.964844 437.089844 55.84375 C 437.699219 55.722656 438.304688 55.574219 438.898438 55.398438 C 439.492188 55.21875 440.078125 55.011719 440.652344 54.777344 C 441.226562 54.542969 441.789062 54.28125 442.335938 53.992188 C 442.886719 53.703125 443.417969 53.390625 443.933594 53.046875 C 444.453125 52.707031 444.949219 52.34375 445.429688 51.953125 C 445.910156 51.566406 446.371094 51.15625 446.8125 50.722656 C 447.25 50.289062 447.667969 49.832031 448.0625 49.359375 C 448.457031 48.886719 448.828125 48.394531 449.171875 47.882812 C 449.519531 47.375 449.835938 46.847656 450.128906 46.308594 C 450.421875 45.769531 450.6875 45.214844 450.925781 44.648438 C 451.164062 44.082031 451.375 43.503906 451.554688 42.917969 C 451.734375 42.332031 451.886719 41.738281 452.007812 41.136719 C 452.128906 40.535156 452.21875 39.929688 452.28125 39.320312 C 452.339844 38.710938 452.371094 38.097656 452.371094 37.484375 C 452.371094 36.871094 452.339844 36.261719 452.28125 35.648438 C 452.21875 35.039062 452.128906 34.433594 452.007812 33.832031 C 451.886719 33.230469 451.734375 32.636719 451.554688 32.050781 C 451.375 31.464844 451.164062 30.886719 450.925781 30.320312 C 450.6875 29.753906 450.421875 29.203125 450.128906 28.660156 C 449.835938 28.121094 449.519531 27.59375 449.171875 27.085938 C 448.828125 26.574219 448.457031 26.085938 448.0625 25.609375 C 447.667969 25.136719 447.25 24.683594 446.8125 24.25 C 446.371094 23.816406 445.910156 23.40625 445.429688 23.015625 C 444.949219 22.625 444.453125 22.261719 443.933594 21.921875 C 443.417969 21.582031 442.886719 21.265625 442.335938 20.976562 C 441.789062 20.6875 441.226562 20.425781 440.652344 20.191406 C 440.078125 19.957031 439.492188 19.75 438.898438 19.574219 C 438.304688 19.394531 437.699219 19.246094 437.089844 19.125 C 436.480469 19.007812 435.867188 18.917969 435.25 18.855469 C 434.628906 18.796875 434.007812 18.765625 433.386719 18.765625 Z M 433.386719 18.765625 "/>
</g>
<g clip-path="url(#clip14)" clip-rule="nonzero">
<path style=" stroke:none;fill-rule:nonzero;fill:rgb(100%,100%,100%);fill-opacity:1;" d="M 435.957031 42.445312 L 440.871094 42.445312 L 441.640625 37.527344 L 435.957031 37.527344 L 435.957031 34.835938 C 435.957031 32.792969 436.632812 30.980469 438.574219 30.980469 L 441.691406 30.980469 L 441.691406 26.683594 C 441.140625 26.613281 439.984375 26.453125 437.796875 26.453125 C 433.226562 26.453125 430.546875 28.832031 430.546875 34.25 L 430.546875 37.527344 L 425.851562 37.527344 L 425.851562 42.445312 L 430.546875 42.445312 L 430.546875 55.972656 C 431.476562 56.109375 432.421875 56.203125 433.386719 56.203125 C 434.261719 56.203125 435.113281 56.125 435.957031 56.011719 Z M 435.957031 42.445312 "/>
</g>
</g>
</svg>
