<?xml version="1.0" encoding="UTF-8"?>
<svg xmlns="http://www.w3.org/2000/svg" xmlns:xlink="http://www.w3.org/1999/xlink" width="675pt" height="74.999997pt" viewBox="0 0 675 74.999997" version="1.2">
<defs>
<clipPath id="clip1">
  <path d="M 7.5 18.742188 L 44.988281 18.742188 L 44.988281 56.230469 L 7.5 56.230469 Z M 7.5 18.742188 "/>
</clipPath>
<clipPath id="clip2">
  <path d="M 85.230469 26 L 111.132812 26 L 111.132812 56.230469 L 85.230469 56.230469 Z M 85.230469 26 "/>
</clipPath>
<clipPath id="clip3">
  <path d="M 87 18.742188 L 93 18.742188 L 93 24 L 87 24 Z M 87 18.742188 "/>
</clipPath>
<clipPath id="clip4">
  <path d="M 93 18.742188 L 98 18.742188 L 98 24 L 93 24 Z M 93 18.742188 "/>
</clipPath>
<clipPath id="clip5">
  <path d="M 98 18.742188 L 104 18.742188 L 104 24 L 98 24 Z M 98 18.742188 "/>
</clipPath>
<clipPath id="clip6">
  <path d="M 104 18.742188 L 109 18.742188 L 109 24 L 104 24 Z M 104 18.742188 "/>
</clipPath>
<clipPath id="clip7">
  <path d="M 154.410156 26 L 180.316406 26 L 180.316406 56.230469 L 154.410156 56.230469 Z M 154.410156 26 "/>
</clipPath>
<clipPath id="clip8">
  <path d="M 160 18.742188 L 165 18.742188 L 165 24 L 160 24 Z M 160 18.742188 "/>
</clipPath>
<clipPath id="clip9">
  <path d="M 165 18.742188 L 170 18.742188 L 170 24 L 165 24 Z M 165 18.742188 "/>
</clipPath>
<clipPath id="clip10">
  <path d="M 169 18.742188 L 174 18.742188 L 174 24 L 169 24 Z M 169 18.742188 "/>
</clipPath>
<clipPath id="clip11">
  <path d="M 226.171875 18.742188 L 267.421875 18.742188 L 267.421875 55 L 226.171875 55 Z M 226.171875 18.742188 "/>
</clipPath>
<clipPath id="clip12">
  <path d="M 234 18.742188 L 260 18.742188 L 260 41 L 234 41 Z M 234 18.742188 "/>
</clipPath>
<clipPath id="clip13">
  <path d="M 349 28 L 354.789062 28 L 354.789062 47 L 349 47 Z M 349 28 "/>
</clipPath>
<clipPath id="clip14">
  <path d="M 338 44 L 354 44 L 354 56.230469 L 338 56.230469 Z M 338 44 "/>
</clipPath>
<clipPath id="clip15">
  <path d="M 321 44 L 337 44 L 337 56.230469 L 321 56.230469 Z M 321 44 "/>
</clipPath>
<clipPath id="clip16">
  <path d="M 320.289062 28 L 326 28 L 326 47 L 320.289062 47 Z M 320.289062 28 "/>
</clipPath>
<clipPath id="clip17">
  <path d="M 320.289062 18.742188 L 337 18.742188 L 337 31 L 320.289062 31 Z M 320.289062 18.742188 "/>
</clipPath>
<clipPath id="clip18">
  <path d="M 338 18.742188 L 354.789062 18.742188 L 354.789062 31 L 338 31 Z M 338 18.742188 "/>
</clipPath>
<clipPath id="clip19">
  <path d="M 395.152344 18.742188 L 501 18.742188 L 501 56.230469 L 395.152344 56.230469 Z M 395.152344 18.742188 "/>
</clipPath>
<clipPath id="clip20">
  <path d="M 578 18.742188 L 588 18.742188 L 588 52 L 578 52 Z M 578 18.742188 "/>
</clipPath>
<clipPath id="clip21">
  <path d="M 570.171875 18.742188 L 579 18.742188 L 579 52 L 570.171875 52 Z M 570.171875 18.742188 "/>
</clipPath>
<clipPath id="clip22">
  <path d="M 578 46 L 581 46 L 581 56.230469 L 578 56.230469 Z M 578 46 "/>
</clipPath>
<clipPath id="clip23">
  <path d="M 645 36 L 667.671875 36 L 667.671875 48 L 645 48 Z M 645 36 "/>
</clipPath>
</defs>
<g id="surface1">
<rect x="0" y="0" width="675" height="74.999997" style="fill:rgb(100%,100%,100%);fill-opacity:1;stroke:none;"/>
<rect x="0" y="0" width="675" height="74.999997" style="fill:rgb(100%,100%,100%);fill-opacity:1;stroke:none;"/>
<rect x="0" y="0" width="675" height="74.999997" style="fill:rgb(100%,100%,100%);fill-opacity:1;stroke:none;"/>
<g clip-path="url(#clip1)" clip-rule="nonzero">
<path style=" stroke:none;fill-rule:nonzero;fill:rgb(100%,83.918762%,0%);fill-opacity:1;" d="M 7.5 18.742188 L 44.988281 18.742188 L 44.988281 56.230469 L 7.5 56.230469 Z M 7.5 18.742188 "/>
</g>
<path style=" stroke:none;fill-rule:nonzero;fill:rgb(0%,0%,0.389099%);fill-opacity:1;" d="M 32.011719 46.804688 C 32.730469 47.972656 33.515625 49.09375 35.171875 49.09375 C 36.566406 49.09375 37.296875 48.402344 37.296875 47.445312 C 37.296875 46.296875 36.542969 45.890625 35.007812 45.222656 L 34.167969 44.863281 C 31.742188 43.835938 30.128906 42.546875 30.128906 39.824219 C 30.128906 37.3125 32.050781 35.40625 35.054688 35.40625 C 37.191406 35.40625 38.726562 36.144531 39.835938 38.082031 L 37.21875 39.757812 C 36.640625 38.726562 36.019531 38.324219 35.054688 38.324219 C 34.070312 38.324219 33.445312 38.945312 33.445312 39.757812 C 33.445312 40.761719 34.070312 41.167969 35.511719 41.789062 L 36.351562 42.148438 C 39.210938 43.363281 40.824219 44.609375 40.824219 47.402344 C 40.824219 50.414062 38.445312 52.066406 35.25 52.066406 C 32.128906 52.066406 30.355469 50.496094 29.367188 48.558594 Z M 19.945312 46.886719 C 20.472656 47.832031 21.273438 48.558594 22.425781 48.558594 C 23.527344 48.558594 24.160156 48.121094 24.160156 46.429688 L 24.160156 35.402344 L 27.632812 35.402344 L 27.632812 46.964844 C 27.632812 50.46875 25.597656 52.066406 22.628906 52.066406 C 19.945312 52.066406 18.007812 50.246094 17.21875 48.558594 Z M 19.945312 46.886719 "/>
<g clip-path="url(#clip2)" clip-rule="nonzero">
<path style=" stroke:none;fill-rule:nonzero;fill:rgb(89.408875%,30.198669%,14.898682%);fill-opacity:1;" d="M 111.125 26.109375 L 108.765625 53.214844 L 98.167969 56.230469 L 87.601562 53.21875 L 85.246094 26.109375 Z M 111.125 26.109375 "/>
</g>
<path style=" stroke:none;fill-rule:nonzero;fill:rgb(94.509888%,39.608765%,16.079712%);fill-opacity:1;" d="M 98.1875 53.925781 L 106.75 51.488281 L 108.761719 28.324219 L 98.1875 28.324219 Z M 98.1875 53.925781 "/>
<path style=" stroke:none;fill-rule:nonzero;fill:rgb(92.158508%,92.158508%,92.158508%);fill-opacity:1;" d="M 93.601562 34.976562 L 98.1875 34.976562 L 98.1875 31.648438 L 90.0625 31.648438 L 90.140625 32.542969 L 90.9375 41.703125 L 98.1875 41.703125 L 98.1875 38.378906 L 93.898438 38.378906 Z M 93.601562 34.976562 "/>
<path style=" stroke:none;fill-rule:nonzero;fill:rgb(92.158508%,92.158508%,92.158508%);fill-opacity:1;" d="M 94.332031 43.367188 L 91.082031 43.367188 L 91.535156 48.589844 L 98.171875 50.476562 L 98.1875 50.472656 L 98.1875 47.015625 L 98.171875 47.019531 L 94.5625 46.019531 Z M 94.332031 43.367188 "/>
<g clip-path="url(#clip3)" clip-rule="nonzero">
<path style=" stroke:none;fill-rule:nonzero;fill:rgb(0%,0%,0%);fill-opacity:1;" d="M 87.65625 18.742188 L 89.300781 18.742188 L 89.300781 20.410156 L 90.808594 20.410156 L 90.808594 18.742188 L 92.453125 18.742188 L 92.453125 23.796875 L 90.808594 23.796875 L 90.808594 22.105469 L 89.300781 22.105469 L 89.300781 23.796875 L 87.65625 23.796875 Z M 87.65625 18.742188 "/>
</g>
<g clip-path="url(#clip4)" clip-rule="nonzero">
<path style=" stroke:none;fill-rule:nonzero;fill:rgb(0%,0%,0%);fill-opacity:1;" d="M 94.617188 20.417969 L 93.167969 20.417969 L 93.167969 18.742188 L 97.714844 18.742188 L 97.714844 20.417969 L 96.265625 20.417969 L 96.265625 23.796875 L 94.617188 23.796875 Z M 94.617188 20.417969 "/>
</g>
<g clip-path="url(#clip5)" clip-rule="nonzero">
<path style=" stroke:none;fill-rule:nonzero;fill:rgb(0%,0%,0%);fill-opacity:1;" d="M 98.4375 18.742188 L 100.152344 18.742188 L 101.207031 20.519531 L 102.261719 18.742188 L 103.980469 18.742188 L 103.980469 23.796875 L 102.339844 23.796875 L 102.339844 21.292969 L 101.207031 23.089844 L 101.179688 23.089844 L 100.046875 21.292969 L 100.046875 23.796875 L 98.4375 23.796875 Z M 98.4375 18.742188 "/>
</g>
<g clip-path="url(#clip6)" clip-rule="nonzero">
<path style=" stroke:none;fill-rule:nonzero;fill:rgb(0%,0%,0%);fill-opacity:1;" d="M 104.800781 18.742188 L 106.445312 18.742188 L 106.445312 22.125 L 108.761719 22.125 L 108.761719 23.796875 L 104.800781 23.796875 Z M 104.800781 18.742188 "/>
</g>
<path style=" stroke:none;fill-rule:nonzero;fill:rgb(100%,100%,100%);fill-opacity:1;" d="M 98.175781 41.703125 L 102.164062 41.703125 L 101.789062 46.015625 L 98.175781 47.019531 L 98.175781 50.476562 L 104.816406 48.589844 L 104.863281 48.027344 L 105.625 39.273438 L 105.707031 38.378906 L 98.175781 38.378906 Z M 98.175781 41.703125 "/>
<path style=" stroke:none;fill-rule:nonzero;fill:rgb(100%,100%,100%);fill-opacity:1;" d="M 98.175781 34.96875 L 98.175781 34.976562 L 106 34.976562 L 106.0625 34.226562 L 106.210938 32.542969 L 106.289062 31.648438 L 98.175781 31.648438 Z M 98.175781 34.96875 "/>
<g clip-path="url(#clip7)" clip-rule="nonzero">
<path style=" stroke:none;fill-rule:nonzero;fill:rgb(14.898682%,30.198669%,89.408875%);fill-opacity:1;" d="M 167.351562 56.230469 L 156.785156 53.21875 L 154.429688 26.109375 L 180.304688 26.109375 L 177.949219 53.214844 Z M 167.351562 56.230469 "/>
</g>
<path style=" stroke:none;fill-rule:nonzero;fill:rgb(16.079712%,39.608765%,94.509888%);fill-opacity:1;" d="M 175.933594 51.488281 L 177.945312 28.324219 L 167.367188 28.324219 L 167.367188 53.925781 Z M 175.933594 51.488281 "/>
<path style=" stroke:none;fill-rule:nonzero;fill:rgb(92.158508%,92.158508%,92.158508%);fill-opacity:1;" d="M 159.828125 38.378906 L 160.117188 41.703125 L 167.367188 41.703125 L 167.367188 38.378906 Z M 159.828125 38.378906 "/>
<path style=" stroke:none;fill-rule:nonzero;fill:rgb(92.158508%,92.158508%,92.158508%);fill-opacity:1;" d="M 159.246094 31.648438 L 159.539062 34.976562 L 167.367188 34.976562 L 167.367188 31.648438 Z M 159.246094 31.648438 "/>
<path style=" stroke:none;fill-rule:nonzero;fill:rgb(92.158508%,92.158508%,92.158508%);fill-opacity:1;" d="M 167.367188 47.015625 L 167.355469 47.019531 L 163.746094 46.019531 L 163.515625 43.367188 L 160.265625 43.367188 L 160.71875 48.589844 L 167.351562 50.476562 L 167.367188 50.472656 Z M 167.367188 47.015625 "/>
<g clip-path="url(#clip8)" clip-rule="nonzero">
<path style=" stroke:none;fill-rule:nonzero;fill:rgb(0%,0%,0%);fill-opacity:1;" d="M 160.519531 18.742188 L 164.445312 18.742188 L 164.445312 20.425781 L 162.160156 20.425781 L 162.160156 22.109375 L 164.445312 22.109375 L 164.445312 23.792969 L 160.519531 23.792969 Z M 160.519531 18.742188 "/>
</g>
<g clip-path="url(#clip9)" clip-rule="nonzero">
<path style=" stroke:none;fill-rule:nonzero;fill:rgb(0%,0%,0%);fill-opacity:1;" d="M 165.226562 18.742188 L 169.152344 18.742188 L 169.152344 20.207031 L 166.871094 20.207031 L 166.871094 20.5 L 169.152344 20.5 L 169.152344 23.867188 L 165.226562 23.867188 L 165.226562 22.328125 L 167.511719 22.328125 L 167.511719 22.035156 L 165.226562 22.035156 Z M 165.226562 18.742188 "/>
</g>
<g clip-path="url(#clip10)" clip-rule="nonzero">
<path style=" stroke:none;fill-rule:nonzero;fill:rgb(0%,0%,0%);fill-opacity:1;" d="M 169.9375 18.742188 L 173.859375 18.742188 L 173.859375 20.207031 L 171.578125 20.207031 L 171.578125 20.5 L 173.859375 20.5 L 173.859375 23.867188 L 169.9375 23.867188 L 169.9375 22.328125 L 172.21875 22.328125 L 172.21875 22.035156 L 169.9375 22.035156 Z M 169.9375 18.742188 "/>
</g>
<path style=" stroke:none;fill-rule:nonzero;fill:rgb(100%,100%,100%);fill-opacity:1;" d="M 174.886719 38.378906 L 175.472656 31.648438 L 167.355469 31.648438 L 167.355469 34.976562 L 171.921875 34.976562 L 171.628906 38.378906 L 167.355469 38.378906 L 167.355469 41.703125 L 171.347656 41.703125 L 170.96875 46.015625 L 167.355469 47.019531 L 167.355469 50.476562 L 174 48.589844 L 174.046875 48.027344 L 174.808594 39.273438 Z M 174.886719 38.378906 "/>
<g clip-path="url(#clip11)" clip-rule="nonzero">
<path style=" stroke:none;fill-rule:nonzero;fill:rgb(25.489807%,72.158813%,51.368713%);fill-opacity:1;" d="M 226.171875 18.90625 L 246.953125 54.191406 L 267.738281 18.90625 L 259.425781 18.90625 L 246.953125 40.078125 L 234.378906 18.90625 Z M 226.171875 18.90625 "/>
</g>
<g clip-path="url(#clip12)" clip-rule="nonzero">
<path style=" stroke:none;fill-rule:nonzero;fill:rgb(20.779419%,28.62854%,36.859131%);fill-opacity:1;" d="M 234.378906 18.90625 L 246.953125 40.179688 L 259.425781 18.90625 L 251.734375 18.90625 L 246.953125 27.089844 L 242.070312 18.90625 Z M 234.378906 18.90625 "/>
</g>
<path style=" stroke:none;fill-rule:nonzero;fill:rgb(0%,0%,0%);fill-opacity:1;" d="M 322.457031 28.125 L 322.460938 28.121094 L 322.457031 28.121094 Z M 322.457031 28.125 "/>
<path style=" stroke:none;fill-rule:nonzero;fill:rgb(10.5896%,45.878601%,73.329163%);fill-opacity:1;" d="M 338.261719 48.015625 L 347.808594 42.878906 L 347.808594 32.703125 L 338.261719 38.097656 Z M 338.261719 48.015625 "/>
<g clip-path="url(#clip13)" clip-rule="nonzero">
<path style=" stroke:none;fill-rule:nonzero;fill:rgb(54.119873%,81.568909%,95.289612%);fill-opacity:1;" d="M 354.855469 28.722656 L 349.171875 31.933594 L 349.171875 43.484375 L 354.855469 46.695312 Z M 354.855469 28.722656 "/>
</g>
<path style=" stroke:none;fill-rule:nonzero;fill:rgb(10.5896%,45.878601%,73.329163%);fill-opacity:1;" d="M 347.167969 31.527344 L 337.582031 26.371094 L 328 31.527344 L 337.582031 36.9375 Z M 347.167969 31.527344 "/>
<g clip-path="url(#clip14)" clip-rule="nonzero">
<path style=" stroke:none;fill-rule:nonzero;fill:rgb(54.119873%,81.568909%,95.289612%);fill-opacity:1;" d="M 347.941406 44.328125 L 338.261719 49.535156 L 338.261719 56.230469 L 353.792969 47.636719 Z M 347.941406 44.328125 "/>
</g>
<g clip-path="url(#clip15)" clip-rule="nonzero">
<path style=" stroke:none;fill-rule:nonzero;fill:rgb(54.119873%,81.568909%,95.289612%);fill-opacity:1;" d="M 336.902344 49.535156 L 327.222656 44.328125 L 321.367188 47.636719 L 336.902344 56.230469 Z M 336.902344 49.535156 "/>
</g>
<g clip-path="url(#clip16)" clip-rule="nonzero">
<path style=" stroke:none;fill-rule:nonzero;fill:rgb(54.119873%,81.568909%,95.289612%);fill-opacity:1;" d="M 320.304688 46.695312 L 325.988281 43.484375 L 325.988281 31.933594 L 320.304688 28.722656 Z M 320.304688 46.695312 "/>
</g>
<g clip-path="url(#clip17)" clip-rule="nonzero">
<path style=" stroke:none;fill-rule:nonzero;fill:rgb(54.119873%,81.568909%,95.289612%);fill-opacity:1;" d="M 326.617188 30.746094 L 336.898438 25.214844 L 336.898438 18.742188 L 320.972656 27.558594 Z M 326.617188 30.746094 "/>
</g>
<path style=" stroke:none;fill-rule:nonzero;fill:rgb(10.5896%,45.878601%,73.329163%);fill-opacity:1;" d="M 336.902344 38.097656 L 327.355469 32.703125 L 327.355469 42.878906 L 336.902344 48.015625 Z M 336.902344 38.097656 "/>
<g clip-path="url(#clip18)" clip-rule="nonzero">
<path style=" stroke:none;fill-rule:nonzero;fill:rgb(54.119873%,81.568909%,95.289612%);fill-opacity:1;" d="M 338.261719 25.214844 L 348.542969 30.75 L 354.191406 27.558594 L 338.261719 18.742188 Z M 338.261719 25.214844 "/>
</g>
<path style=" stroke:none;fill-rule:nonzero;fill:rgb(51.368713%,80.389404%,16.079712%);fill-opacity:1;" d="M 518.253906 32.011719 C 517.929688 32.011719 517.613281 32.078125 517.335938 32.234375 L 508.515625 37.304688 C 507.945312 37.632812 507.597656 38.25 507.597656 38.910156 L 507.597656 49.03125 C 507.597656 49.6875 507.945312 50.304688 508.515625 50.632812 L 510.820312 51.953125 C 511.9375 52.503906 512.351562 52.496094 512.859375 52.496094 C 514.515625 52.496094 515.460938 51.496094 515.460938 49.753906 L 515.460938 39.769531 C 515.460938 39.625 515.339844 39.527344 515.199219 39.527344 L 514.097656 39.527344 C 513.953125 39.527344 513.832031 39.628906 513.832031 39.769531 L 513.832031 49.757812 C 513.832031 50.53125 513.027344 51.304688 511.71875 50.65625 L 509.324219 49.257812 C 509.238281 49.210938 509.171875 49.125 509.171875 49.03125 L 509.171875 38.910156 C 509.171875 38.816406 509.238281 38.714844 509.324219 38.667969 L 518.125 33.617188 C 518.207031 33.570312 518.304688 33.570312 518.386719 33.617188 L 527.1875 38.667969 C 527.273438 38.71875 527.339844 38.8125 527.339844 38.910156 L 527.339844 49.03125 C 527.339844 49.128906 527.289062 49.226562 527.207031 49.273438 L 518.386719 54.328125 C 518.308594 54.371094 518.207031 54.371094 518.125 54.328125 L 515.859375 52.984375 C 515.792969 52.945312 515.699219 52.949219 515.632812 52.984375 C 515.007812 53.339844 514.890625 53.378906 514.304688 53.582031 C 514.160156 53.632812 513.941406 53.710938 514.378906 53.953125 L 517.339844 55.691406 C 517.621094 55.851562 517.933594 55.933594 518.257812 55.933594 C 518.582031 55.933594 518.894531 55.855469 519.175781 55.691406 L 527.996094 50.636719 C 528.566406 50.308594 528.914062 49.691406 528.914062 49.035156 L 528.914062 38.914062 C 528.914062 38.253906 528.566406 37.636719 527.996094 37.308594 L 519.175781 32.238281 C 518.898438 32.082031 518.582031 32.015625 518.257812 32.015625 Z M 520.613281 39.246094 C 518.101562 39.246094 516.605469 40.308594 516.605469 42.078125 C 516.605469 43.996094 518.089844 44.523438 520.5 44.761719 C 523.386719 45.042969 523.609375 45.464844 523.609375 46.03125 C 523.609375 47.007812 522.824219 47.425781 520.96875 47.425781 C 518.636719 47.425781 518.125 46.847656 517.953125 45.691406 C 517.933594 45.566406 517.839844 45.46875 517.710938 45.46875 L 516.566406 45.46875 C 516.394531 45.472656 516.308594 45.558594 516.304688 45.730469 C 516.304688 47.207031 517.109375 48.953125 520.964844 48.953125 C 523.757812 48.953125 525.367188 47.867188 525.367188 45.953125 C 525.367188 44.0625 524.066406 43.550781 521.359375 43.195312 C 518.625 42.832031 518.363281 42.65625 518.363281 42.019531 C 518.363281 41.492188 518.585938 40.789062 520.609375 40.789062 C 522.421875 40.789062 523.089844 41.175781 523.363281 42.390625 C 523.386719 42.503906 523.488281 42.597656 523.605469 42.597656 L 524.753906 42.597656 C 524.824219 42.597656 524.890625 42.554688 524.941406 42.503906 C 524.988281 42.453125 525.023438 42.390625 525.015625 42.320312 C 524.835938 40.226562 523.4375 39.242188 520.613281 39.242188 Z M 520.613281 39.246094 "/>
<g clip-path="url(#clip19)" clip-rule="nonzero">
<path style=" stroke:none;fill-rule:nonzero;fill:rgb(25.099182%,25.489807%,21.569824%);fill-opacity:1;" d="M 466.394531 18.742188 C 466.296875 18.742188 466.203125 18.765625 466.117188 18.816406 C 465.929688 18.925781 465.835938 19.085938 465.835938 19.300781 L 465.835938 33.5625 C 465.835938 33.703125 465.769531 33.828125 465.648438 33.898438 C 465.515625 33.972656 465.386719 33.972656 465.253906 33.898438 L 462.914062 32.554688 C 462.539062 32.339844 462.164062 32.339844 461.789062 32.554688 L 452.445312 37.921875 C 452.097656 38.125 451.882812 38.511719 451.882812 38.910156 L 451.882812 49.648438 C 451.882812 50.078125 452.070312 50.402344 452.445312 50.617188 L 461.789062 55.988281 C 462.164062 56.203125 462.539062 56.203125 462.914062 55.988281 L 472.257812 50.617188 C 472.632812 50.402344 472.820312 50.078125 472.820312 49.648438 L 472.820312 22.878906 C 472.820312 22.472656 472.597656 22.089844 472.238281 21.890625 L 466.679688 18.796875 C 466.589844 18.75 466.492188 18.738281 466.398438 18.742188 Z M 406.28125 32.144531 C 406.101562 32.152344 405.933594 32.183594 405.773438 32.277344 L 396.429688 37.644531 C 396.054688 37.859375 395.867188 38.183594 395.867188 38.613281 L 395.886719 53.023438 C 395.886719 53.222656 395.992188 53.410156 396.167969 53.507812 C 396.34375 53.609375 396.558594 53.609375 396.730469 53.507812 L 402.273438 50.339844 C 402.625 50.132812 402.855469 49.769531 402.855469 49.371094 L 402.855469 42.640625 C 402.855469 42.238281 403.066406 41.871094 403.417969 41.671875 L 405.777344 40.308594 C 405.949219 40.210938 406.136719 40.160156 406.335938 40.160156 C 406.539062 40.160156 406.726562 40.207031 406.898438 40.308594 L 409.257812 41.667969 C 409.609375 41.867188 409.820312 42.238281 409.820312 42.636719 L 409.820312 49.367188 C 409.820312 49.769531 410.054688 50.132812 410.402344 50.335938 L 415.945312 53.503906 C 416.117188 53.609375 416.332031 53.609375 416.503906 53.503906 C 416.675781 53.40625 416.785156 53.222656 416.785156 53.019531 L 416.804688 38.613281 C 416.808594 38.179688 416.621094 37.855469 416.242188 37.644531 L 406.898438 32.277344 C 406.742188 32.183594 406.574219 32.152344 406.394531 32.144531 Z M 490.253906 32.277344 C 490.054688 32.273438 489.867188 32.324219 489.691406 32.425781 L 480.347656 37.792969 C 480 37.996094 479.785156 38.359375 479.785156 38.761719 L 479.785156 49.5 C 479.785156 49.902344 480.011719 50.269531 480.367188 50.46875 L 489.636719 55.726562 C 489.976562 55.921875 490.394531 55.9375 490.742188 55.746094 L 496.359375 52.632812 C 496.535156 52.535156 496.65625 52.351562 496.65625 52.148438 C 496.660156 51.945312 496.554688 51.765625 496.378906 51.664062 L 486.976562 46.296875 C 486.800781 46.195312 486.675781 45.992188 486.675781 45.792969 L 486.675781 42.433594 C 486.675781 42.234375 486.800781 42.050781 486.976562 41.949219 L 489.898438 40.273438 C 490.070312 40.171875 490.285156 40.171875 490.460938 40.273438 L 493.386719 41.949219 C 493.574219 42.058594 493.667969 42.21875 493.667969 42.433594 L 493.667969 45.082031 C 493.667969 45.296875 493.761719 45.457031 493.949219 45.566406 C 494.125 45.667969 494.335938 45.667969 494.511719 45.566406 L 500.109375 42.320312 C 500.457031 42.121094 500.671875 41.753906 500.671875 41.351562 L 500.671875 38.761719 C 500.671875 38.332031 500.484375 38.007812 500.109375 37.792969 L 490.820312 32.425781 C 490.648438 32.324219 490.460938 32.273438 490.257812 32.273438 Z M 462.3125 40.292969 C 462.367188 40.292969 462.414062 40.304688 462.460938 40.328125 L 465.664062 42.175781 C 465.75 42.222656 465.816406 42.316406 465.816406 42.417969 L 465.816406 46.105469 C 465.816406 46.207031 465.753906 46.300781 465.664062 46.347656 L 462.460938 48.195312 C 462.375 48.242188 462.269531 48.242188 462.179688 48.195312 L 458.980469 46.347656 C 458.890625 46.300781 458.828125 46.207031 458.828125 46.105469 L 458.828125 42.417969 C 458.828125 42.316406 458.890625 42.226562 458.980469 42.175781 L 462.179688 40.328125 C 462.226562 40.304688 462.261719 40.292969 462.3125 40.292969 Z M 462.3125 40.292969 "/>
</g>
<path style=" stroke:none;fill-rule:nonzero;fill:rgb(51.368713%,80.389404%,16.079712%);fill-opacity:1;" d="M 434.351562 32.21875 C 434.152344 32.21875 433.964844 32.269531 433.789062 32.367188 L 424.445312 37.71875 C 424.097656 37.917969 423.882812 38.304688 423.882812 38.707031 L 423.882812 49.445312 C 423.882812 49.875 424.070312 50.199219 424.445312 50.414062 L 433.789062 55.78125 C 434.164062 55.996094 434.539062 55.996094 434.914062 55.78125 L 444.257812 50.414062 C 444.632812 50.199219 444.820312 49.875 444.820312 49.441406 L 444.820312 38.707031 C 444.820312 38.304688 444.609375 37.917969 444.257812 37.71875 L 434.914062 32.367188 C 434.738281 32.269531 434.550781 32.21875 434.351562 32.21875 Z M 490.234375 41.800781 C 490.199219 41.800781 490.15625 41.800781 490.125 41.820312 L 488.324219 42.863281 C 488.253906 42.902344 488.214844 42.964844 488.214844 43.050781 L 488.214844 45.101562 C 488.214844 45.175781 488.257812 45.246094 488.324219 45.285156 L 490.125 46.3125 C 490.191406 46.355469 490.261719 46.355469 490.328125 46.3125 L 492.128906 45.285156 C 492.195312 45.25 492.238281 45.175781 492.238281 45.101562 L 492.238281 43.050781 C 492.238281 42.972656 492.195312 42.902344 492.128906 42.863281 L 490.328125 41.820312 C 490.296875 41.800781 490.273438 41.800781 490.234375 41.800781 Z M 490.234375 41.800781 "/>
<g clip-path="url(#clip20)" clip-rule="nonzero">
<path style=" stroke:none;fill-rule:nonzero;fill:rgb(34.899902%,58.81958%,21.179199%);fill-opacity:1;" d="M 578.6875 18.882812 L 579.691406 20.761719 C 579.910156 21.101562 580.164062 21.414062 580.453125 21.699219 C 581.292969 22.539062 582.089844 23.414062 582.808594 24.355469 C 584.507812 26.578125 585.65625 29.050781 586.476562 31.722656 C 586.96875 33.355469 587.234375 35.03125 587.253906 36.722656 C 587.339844 41.785156 585.59375 46.132812 582.070312 49.746094 C 581.496094 50.320312 580.882812 50.84375 580.226562 51.320312 C 579.875 51.320312 579.710938 51.042969 579.570312 50.808594 C 579.292969 50.351562 579.136719 49.847656 579.054688 49.339844 C 578.933594 48.726562 578.851562 48.113281 578.890625 47.480469 L 578.890625 47.195312 C 578.871094 47.132812 578.5625 19.027344 578.6875 18.882812 Z M 578.6875 18.882812 "/>
</g>
<g clip-path="url(#clip21)" clip-rule="nonzero">
<path style=" stroke:none;fill-rule:nonzero;fill:rgb(42.349243%,67.449951%,28.239441%);fill-opacity:1;" d="M 578.6875 18.824219 C 578.648438 18.738281 578.605469 18.800781 578.566406 18.84375 C 578.585938 19.25 578.441406 19.617188 578.214844 19.964844 C 577.96875 20.3125 577.640625 20.578125 577.3125 20.863281 C 575.488281 22.4375 574.054688 24.335938 572.90625 26.457031 C 571.390625 29.316406 570.589844 32.375 570.367188 35.601562 C 570.265625 36.765625 570.734375 40.867188 571.105469 42.050781 C 572.109375 45.195312 573.914062 47.828125 576.257812 50.113281 C 576.832031 50.664062 577.449219 51.175781 578.082031 51.664062 C 578.269531 51.664062 578.289062 51.5 578.328125 51.378906 C 578.410156 51.117188 578.472656 50.851562 578.511719 50.582031 C 578.699219 49.5625 578.800781 48.542969 578.921875 47.519531 L 578.699219 18.824219 Z M 578.6875 18.824219 "/>
</g>
<g clip-path="url(#clip22)" clip-rule="nonzero">
<path style=" stroke:none;fill-rule:nonzero;fill:rgb(76.078796%,74.899292%,74.899292%);fill-opacity:1;" d="M 579.695312 52.5625 C 579.738281 52.09375 579.972656 51.707031 580.207031 51.320312 C 579.960938 51.21875 579.777344 51.011719 579.632812 50.789062 C 579.511719 50.582031 579.410156 50.328125 579.328125 50.113281 C 579.039062 49.257812 578.976562 48.359375 578.894531 47.480469 L 578.894531 46.949219 C 578.792969 47.03125 578.773438 47.722656 578.773438 47.828125 C 578.710938 48.765625 578.589844 49.683594 578.402344 50.582031 C 578.34375 50.949219 578.304688 51.316406 578.078125 51.644531 C 578.078125 51.683594 578.078125 51.726562 578.097656 51.785156 C 578.464844 52.867188 578.566406 53.972656 578.628906 55.09375 L 578.628906 55.5 C 578.628906 55.992188 578.609375 55.890625 579.019531 56.050781 C 579.183594 56.113281 579.371094 56.132812 579.53125 56.257812 C 579.65625 56.257812 579.675781 56.15625 579.675781 56.074219 L 579.613281 55.398438 L 579.613281 53.519531 C 579.59375 53.195312 579.65625 52.867188 579.699219 52.558594 Z M 579.695312 52.5625 "/>
</g>
<path style=" stroke:none;fill-rule:nonzero;fill:rgb(27.839661%,27.839661%,29.019165%);fill-opacity:1;" d="M 595.261719 44.027344 L 595.261719 45.96875 C 595.257812 46.046875 595.261719 46.125 595.273438 46.199219 C 595.300781 46.429688 595.441406 46.570312 595.648438 46.636719 C 595.84375 46.6875 596.042969 46.726562 596.242188 46.75 C 596.355469 46.765625 596.394531 46.816406 596.410156 46.9375 C 596.421875 47.375 596.382812 47.425781 595.960938 47.398438 C 594.972656 47.347656 593.980469 47.335938 592.992188 47.398438 L 592.898438 47.398438 C 592.589844 47.410156 592.566406 47.386719 592.566406 47.078125 C 592.566406 47.027344 592.578125 46.964844 592.578125 46.910156 C 592.578125 46.820312 592.640625 46.773438 592.730469 46.773438 C 592.9375 46.746094 593.128906 46.695312 593.324219 46.65625 C 593.59375 46.59375 593.746094 46.425781 593.773438 46.15625 C 593.8125 45.863281 593.8125 45.558594 593.8125 45.261719 L 593.824219 41.835938 C 593.832031 41.613281 593.738281 41.449219 593.542969 41.347656 C 593.308594 41.21875 593.066406 41.117188 592.808594 41.039062 C 592.730469 41.015625 592.65625 41.003906 592.589844 40.964844 C 592.402344 40.875 592.398438 40.707031 592.578125 40.605469 C 592.640625 40.566406 592.71875 40.542969 592.796875 40.527344 C 593.578125 40.414062 594.339844 40.222656 595.082031 39.953125 C 595.234375 39.902344 595.273438 39.914062 595.289062 40.070312 C 595.300781 40.160156 595.289062 40.273438 595.277344 40.363281 C 595.25 40.527344 595.25 40.695312 595.25 40.847656 C 595.25 40.914062 595.261719 40.976562 595.328125 41.015625 C 595.390625 41.054688 595.457031 41.015625 595.515625 40.976562 C 595.785156 40.773438 596.054688 40.582031 596.351562 40.417969 C 596.773438 40.1875 597.222656 39.980469 597.710938 39.917969 C 598.304688 39.839844 598.816406 39.996094 599.265625 40.378906 C 599.453125 40.542969 599.617188 40.730469 599.753906 40.941406 C 599.882812 41.128906 599.894531 41.132812 600.0625 41.003906 C 600.550781 40.644531 601.066406 40.328125 601.617188 40.097656 C 602.195312 39.851562 602.789062 39.816406 603.378906 40.019531 C 603.980469 40.238281 604.390625 40.660156 604.636719 41.234375 C 604.84375 41.695312 604.933594 42.171875 604.933594 42.667969 L 604.933594 46.09375 C 604.933594 46.324219 605.027344 46.46875 605.253906 46.582031 C 605.496094 46.675781 605.769531 46.722656 606.023438 46.773438 C 606.191406 46.808594 606.191406 46.808594 606.191406 46.976562 C 606.167969 47.398438 606.128906 47.425781 605.714844 47.398438 C 604.683594 47.34375 603.652344 47.34375 602.621094 47.398438 C 602.414062 47.414062 602.414062 47.414062 602.402344 47.207031 L 602.402344 47.144531 C 602.390625 46.796875 602.390625 46.796875 602.722656 46.722656 L 603.058594 46.632812 C 603.175781 46.605469 603.269531 46.546875 603.34375 46.453125 C 603.417969 46.359375 603.457031 46.253906 603.457031 46.132812 L 603.492188 45.175781 L 603.46875 42.667969 C 603.457031 42.441406 603.410156 42.226562 603.328125 42.015625 C 603.007812 41.234375 602.300781 40.953125 601.617188 41.03125 C 601.105469 41.082031 600.65625 41.285156 600.230469 41.582031 C 600.140625 41.644531 600.078125 41.722656 600.089844 41.851562 C 600.207031 42.667969 600.128906 43.488281 600.140625 44.304688 L 600.140625 46.085938 C 600.140625 46.40625 600.269531 46.558594 600.578125 46.636719 L 601.171875 46.761719 C 601.261719 46.777344 601.3125 46.816406 601.3125 46.917969 L 601.3125 47.011719 C 601.300781 47.367188 601.273438 47.382812 600.914062 47.382812 C 599.886719 47.328125 598.859375 47.34375 597.84375 47.382812 C 597.496094 47.394531 597.46875 47.355469 597.484375 47.007812 C 597.496094 46.800781 597.523438 46.789062 597.714844 46.75 L 598.136719 46.675781 C 598.515625 46.597656 598.652344 46.457031 598.679688 46.058594 L 598.714844 45.203125 L 598.691406 42.632812 C 598.664062 42.3125 598.597656 42.003906 598.421875 41.710938 C 598.164062 41.238281 597.761719 40.996094 597.210938 40.96875 C 596.660156 40.929688 596.171875 41.136719 595.707031 41.390625 C 595.386719 41.578125 595.246094 41.800781 595.273438 42.171875 L 595.273438 44.039062 Z M 619.460938 44.105469 L 619.460938 45.90625 C 619.460938 46.035156 619.46875 46.164062 619.484375 46.292969 C 619.496094 46.488281 619.601562 46.605469 619.792969 46.648438 C 620.015625 46.714844 620.242188 46.753906 620.472656 46.765625 C 620.601562 46.777344 620.628906 46.828125 620.640625 46.929688 L 620.640625 47.023438 C 620.628906 47.46875 620.578125 47.519531 620.140625 47.496094 C 619.164062 47.429688 618.1875 47.445312 617.210938 47.496094 L 616.835938 47.507812 C 616.757812 47.507812 616.742188 47.472656 616.71875 47.417969 C 616.683594 47.238281 616.683594 47.058594 616.71875 46.882812 C 616.734375 46.804688 616.785156 46.789062 616.859375 46.765625 C 617.050781 46.742188 617.207031 46.703125 617.386719 46.671875 C 617.707031 46.59375 617.824219 46.464844 617.835938 46.136719 L 617.875 45.0625 L 617.875 41.914062 C 617.875 41.683594 617.785156 41.542969 617.578125 41.441406 C 617.347656 41.3125 617.105469 41.222656 616.847656 41.132812 C 616.769531 41.109375 616.691406 41.082031 616.628906 41.042969 C 616.460938 40.929688 616.441406 40.761719 616.601562 40.632812 C 616.675781 40.574219 616.761719 40.539062 616.859375 40.53125 C 617.683594 40.402344 618.476562 40.226562 619.25 39.917969 C 619.339844 39.878906 619.378906 39.90625 619.414062 39.980469 C 619.453125 40.058594 619.46875 40.148438 619.453125 40.238281 L 619.414062 40.835938 C 619.414062 40.914062 619.378906 41.023438 619.441406 41.054688 C 619.519531 41.105469 619.570312 40.992188 619.632812 40.960938 C 620.015625 40.644531 620.429688 40.378906 620.878906 40.167969 C 621.277344 39.980469 621.6875 39.863281 622.152344 39.886719 C 623.011719 39.9375 623.628906 40.375 624.027344 41.128906 C 624.234375 41.527344 624.320312 41.960938 624.359375 42.410156 L 624.398438 43.34375 L 624.410156 46.171875 C 624.425781 46.386719 624.5 46.527344 624.71875 46.605469 C 624.945312 46.679688 625.175781 46.738281 625.414062 46.773438 C 625.621094 46.796875 625.632812 46.835938 625.644531 47.027344 L 625.644531 47.089844 C 625.617188 47.527344 625.59375 47.539062 625.15625 47.511719 C 624.195312 47.460938 623.238281 47.460938 622.277344 47.511719 C 622.148438 47.527344 622.023438 47.511719 621.902344 47.527344 C 621.824219 47.527344 621.773438 47.511719 621.761719 47.4375 C 621.738281 47.269531 621.710938 47.105469 621.75 46.925781 C 621.761719 46.847656 621.800781 46.808594 621.890625 46.796875 L 622.480469 46.703125 C 622.6875 46.652344 622.804688 46.515625 622.828125 46.328125 L 622.855469 45.96875 L 622.839844 43.296875 C 622.839844 42.988281 622.828125 42.683594 622.765625 42.375 C 622.609375 41.71875 622.109375 41.253906 621.429688 41.1875 C 620.835938 41.125 620.300781 41.277344 619.8125 41.597656 C 619.566406 41.75 619.464844 41.964844 619.464844 42.234375 L 619.464844 44.167969 C 619.464844 44.128906 619.464844 44.128906 619.476562 44.128906 Z M 619.460938 44.105469 "/>
<g clip-path="url(#clip23)" clip-rule="nonzero">
<path style=" stroke:none;fill-rule:nonzero;fill:rgb(76.078796%,74.899292%,74.899292%);fill-opacity:1;" d="M 657.078125 40.484375 C 656.9375 39.550781 656.589844 38.71875 655.984375 37.988281 C 655.449219 37.335938 654.792969 36.847656 654.007812 36.53125 C 653.199219 36.199219 652.335938 36.097656 651.464844 36.070312 C 651.101562 36.058594 646.195312 36.136719 645.835938 36.070312 C 645.746094 36.058594 645.683594 36.085938 645.628906 36.160156 C 645.566406 36.253906 645.5 36.351562 645.464844 36.453125 C 645.308594 36.800781 645.308594 36.773438 645.679688 36.824219 C 645.988281 36.878906 646.285156 36.902344 646.582031 36.992188 C 646.851562 37.082031 647.042969 37.234375 647.105469 37.53125 C 647.132812 37.667969 647.160156 42.171875 647.160156 44.269531 L 647.105469 45.765625 C 647.09375 45.882812 647.082031 45.996094 647.042969 46.097656 C 646.992188 46.253906 646.902344 46.378906 646.746094 46.445312 C 646.578125 46.527344 646.398438 46.574219 646.207031 46.585938 C 645.859375 46.625 645.808594 46.636719 645.695312 47.019531 L 645.65625 47.160156 C 645.632812 47.328125 645.644531 47.355469 645.8125 47.355469 L 649.652344 47.390625 L 651.15625 47.367188 L 652.195312 47.238281 C 653.378906 47.019531 654.429688 46.535156 655.328125 45.753906 C 655.847656 45.296875 656.257812 44.761719 656.5625 44.144531 C 656.921875 43.425781 657.078125 42.644531 657.113281 41.851562 C 657.179688 41.40625 657.152344 40.945312 657.078125 40.484375 Z M 655.214844 42.300781 C 655.164062 43.117188 654.996094 43.910156 654.574219 44.628906 C 654.03125 45.5625 653.261719 46.214844 652.195312 46.441406 C 651.734375 46.535156 651.273438 46.582031 650.785156 46.519531 C 650.4375 46.480469 650.105469 46.441406 649.785156 46.328125 C 649.207031 46.121094 649 45.765625 648.988281 45.203125 L 648.976562 37.492188 C 648.976562 37.03125 649.183594 36.929688 649.515625 36.917969 C 650.015625 36.878906 650.53125 36.890625 651.03125 36.941406 C 651.566406 36.992188 652.085938 37.117188 652.585938 37.316406 C 652.957031 37.472656 653.296875 37.679688 653.601562 37.945312 C 654.292969 38.535156 654.757812 39.273438 655.011719 40.144531 C 655.21875 40.847656 655.253906 41.5625 655.21875 42.277344 Z M 667.753906 43.554688 C 667.753906 43.476562 667.753906 43.414062 667.738281 43.335938 C 667.625 42.632812 667.25 42.097656 666.671875 41.6875 C 666.300781 41.417969 665.878906 41.238281 665.441406 41.109375 C 665.363281 41.085938 665.300781 41.058594 665.222656 41.046875 C 665.234375 40.984375 665.273438 40.972656 665.3125 40.957031 C 665.570312 40.828125 665.8125 40.6875 666.03125 40.496094 C 666.429688 40.164062 666.691406 39.753906 666.828125 39.257812 C 666.90625 38.988281 666.90625 38.71875 666.878906 38.4375 C 666.835938 37.734375 666.523438 37.179688 665.941406 36.773438 C 665.347656 36.339844 664.65625 36.160156 663.9375 36.148438 C 662.550781 36.121094 661.152344 36.148438 659.765625 36.148438 C 659.367188 36.148438 658.96875 36.171875 658.558594 36.109375 C 658.480469 36.097656 658.367188 36.070312 658.3125 36.160156 C 658.21875 36.328125 658.105469 36.492188 658.066406 36.683594 C 658.054688 36.773438 658.082031 36.824219 658.183594 36.839844 L 659.070312 36.96875 C 659.417969 37.019531 659.660156 37.210938 659.6875 37.515625 C 659.710938 37.730469 659.722656 37.941406 659.722656 38.15625 L 659.699219 40.546875 L 659.6875 45.28125 C 659.6875 45.558594 659.648438 45.828125 659.59375 46.109375 C 659.566406 46.308594 659.457031 46.4375 659.261719 46.496094 C 659.003906 46.570312 658.761719 46.648438 658.492188 46.648438 C 658.320312 46.632812 658.210938 46.703125 658.15625 46.863281 C 658.105469 46.980469 658.0625 47.109375 658.042969 47.222656 C 658.015625 47.378906 658.054688 47.429688 658.210938 47.410156 C 658.324219 47.398438 662.5625 47.5 663.359375 47.425781 C 663.835938 47.371094 664.300781 47.308594 664.773438 47.167969 C 665.582031 46.914062 666.328125 46.542969 666.917969 45.914062 C 667.40625 45.402344 667.6875 44.789062 667.714844 44.074219 C 667.75 43.90625 667.75 43.738281 667.75 43.558594 Z M 661.523438 38.3125 L 661.5625 37.289062 C 661.5625 37.097656 661.636719 37.007812 661.832031 36.96875 C 662.140625 36.90625 662.445312 36.933594 662.753906 36.945312 C 663.0625 36.96875 663.359375 37.007812 663.667969 37.097656 C 664.230469 37.265625 664.667969 37.585938 664.925781 38.121094 C 665.042969 38.367188 665.105469 38.628906 665.105469 38.902344 C 665.117188 39.261719 665.09375 39.605469 664.953125 39.949219 C 664.734375 40.421875 664.386719 40.730469 663.886719 40.820312 C 663.382812 40.910156 661.960938 40.871094 661.742188 40.871094 C 661.546875 40.871094 661.535156 40.847656 661.535156 40.65625 L 661.535156 39.449219 C 661.503906 39.074219 661.5 38.699219 661.519531 38.324219 Z M 665.695312 45.195312 C 665.476562 45.769531 665.078125 46.167969 664.515625 46.382812 C 664.207031 46.496094 663.898438 46.570312 663.574219 46.550781 C 663.175781 46.535156 662.777344 46.550781 662.382812 46.472656 C 661.839844 46.355469 661.597656 45.84375 661.558594 45.472656 C 661.496094 44.820312 661.535156 44.15625 661.519531 43.671875 L 661.519531 41.984375 C 661.519531 41.777344 661.546875 41.714844 661.765625 41.714844 L 662.972656 41.726562 L 663.796875 41.820312 C 664.375 41.949219 664.898438 42.167969 665.3125 42.613281 C 665.644531 42.972656 665.824219 43.40625 665.863281 43.878906 C 665.902344 44.328125 665.878906 44.761719 665.710938 45.183594 Z M 665.695312 45.195312 "/>
</g>
<path style=" stroke:none;fill-rule:nonzero;fill:rgb(27.839661%,27.839661%,29.019165%);fill-opacity:1;" d="M 633.0625 41.339844 L 633.398438 41.390625 C 633.757812 41.40625 634.179688 41.277344 634.308594 40.777344 C 634.378906 40.535156 634.378906 40.292969 634.308594 40.046875 C 634.230469 40.046875 634.191406 40.113281 634.152344 40.136719 C 633.960938 40.292969 633.742188 40.382812 633.511719 40.40625 C 633.050781 40.457031 632.585938 40.433594 632.136719 40.265625 L 631.507812 40.050781 C 631.066406 39.90625 630.609375 39.84375 630.144531 39.871094 C 629.492188 39.921875 628.875 40.140625 628.296875 40.445312 C 627.679688 40.777344 627.242188 41.277344 627.035156 41.957031 C 626.921875 42.351562 626.90625 42.761719 626.960938 43.171875 C 627.089844 44.105469 627.574219 44.757812 628.449219 45.101562 C 628.5 45.117188 628.539062 45.140625 628.589844 45.15625 C 628.707031 45.21875 628.71875 45.28125 628.617188 45.371094 L 628.292969 45.589844 L 627.523438 46.0625 C 627.332031 46.175781 627.304688 46.269531 627.371094 46.472656 C 627.445312 46.714844 627.585938 46.917969 627.78125 47.085938 C 627.957031 47.238281 628.15625 47.355469 628.371094 47.445312 C 628.511719 47.507812 628.511719 47.539062 628.382812 47.648438 L 627.652344 48.171875 C 627.40625 48.359375 627.164062 48.546875 626.957031 48.789062 C 626.648438 49.117188 626.546875 49.5 626.648438 49.9375 C 626.746094 50.394531 626.96875 50.777344 627.316406 51.089844 C 627.65625 51.402344 628.050781 51.617188 628.496094 51.730469 C 629.21875 51.933594 629.960938 51.945312 630.695312 51.804688 C 631.746094 51.613281 632.667969 51.152344 633.390625 50.359375 C 633.894531 49.835938 634.1875 49.222656 634.214844 48.488281 C 634.226562 48.277344 634.207031 48.070312 634.144531 47.863281 C 634.085938 47.660156 633.992188 47.472656 633.863281 47.300781 C 633.738281 47.132812 633.585938 46.988281 633.40625 46.871094 C 633.226562 46.753906 633.035156 46.671875 632.828125 46.621094 L 632.132812 46.492188 L 630.015625 46.304688 C 629.78125 46.292969 629.550781 46.253906 629.359375 46.140625 C 629.113281 45.988281 629.050781 45.691406 629.203125 45.5 C 629.320312 45.359375 629.460938 45.269531 629.640625 45.257812 L 630.050781 45.21875 C 630.886719 45.136719 631.609375 44.808594 632.222656 44.234375 C 632.546875 43.9375 632.765625 43.574219 632.878906 43.148438 C 633.03125 42.597656 633.03125 42.023438 632.902344 41.464844 C 632.867188 41.324219 632.878906 41.308594 633.058594 41.335938 Z M 629.914062 47.710938 C 629.992188 47.722656 630.070312 47.710938 630.144531 47.710938 C 630.683594 47.738281 631.238281 47.773438 631.765625 47.917969 C 631.9375 47.96875 632.101562 48.03125 632.265625 48.109375 C 632.777344 48.390625 632.972656 48.875 632.90625 49.402344 C 632.828125 49.976562 632.507812 50.386719 632.007812 50.65625 C 631.675781 50.84375 631.300781 50.921875 630.914062 50.960938 C 630.773438 50.976562 630.644531 50.960938 630.503906 50.960938 C 630.054688 50.976562 629.617188 50.925781 629.195312 50.746094 C 628.898438 50.628906 628.65625 50.464844 628.4375 50.234375 C 627.988281 49.785156 627.777344 48.964844 628.449219 48.300781 C 628.859375 47.925781 629.324219 47.660156 629.914062 47.710938 Z M 631.378906 43.71875 C 631.109375 44.398438 630.519531 44.601562 629.925781 44.511719 C 629.386719 44.4375 628.988281 44.144531 628.734375 43.65625 C 628.398438 43.003906 628.3125 42.328125 628.503906 41.621094 C 628.644531 41.097656 628.964844 40.703125 629.53125 40.613281 C 630.25 40.484375 630.941406 40.738281 631.300781 41.457031 C 631.492188 41.800781 631.574219 42.222656 631.574219 42.824219 C 631.558594 43.066406 631.507812 43.398438 631.378906 43.71875 Z M 615.195312 42.851562 C 615.078125 42.160156 614.824219 41.53125 614.347656 41.007812 C 613.640625 40.226562 612.742188 39.886719 611.726562 39.882812 C 610.839844 39.871094 610.007812 40.125 609.261719 40.585938 C 608.5 41.039062 608 41.691406 607.757812 42.542969 C 607.539062 43.285156 607.550781 44.039062 607.71875 44.792969 C 608.171875 46.816406 609.738281 47.683594 611.613281 47.558594 C 612.164062 47.519531 612.691406 47.339844 613.191406 47.097656 C 613.9375 46.75 614.476562 46.199219 614.847656 45.472656 C 615.144531 44.871094 615.269531 44.230469 615.257812 43.5 L 615.195312 42.847656 Z M 613.371094 45.691406 C 613.277344 45.984375 613.113281 46.226562 612.871094 46.421875 C 612.632812 46.617188 612.355469 46.730469 612.050781 46.765625 C 611.484375 46.839844 610.957031 46.699219 610.480469 46.367188 C 610.132812 46.113281 609.863281 45.792969 609.671875 45.40625 C 609.148438 44.332031 609.054688 43.207031 609.324219 42.058594 C 609.414062 41.695312 609.59375 41.382812 609.863281 41.125 C 610.339844 40.6875 610.890625 40.585938 611.507812 40.714844 C 612.101562 40.84375 612.550781 41.160156 612.917969 41.648438 C 613.289062 42.136719 613.457031 42.695312 613.5625 43.285156 C 613.613281 43.582031 613.613281 43.886719 613.625 44.078125 C 613.625 44.691406 613.574219 45.203125 613.378906 45.691406 Z M 643.261719 42.953125 C 643.167969 42.210938 642.890625 41.535156 642.363281 40.972656 C 641.667969 40.214844 640.769531 39.894531 639.765625 39.882812 C 638.90625 39.871094 638.109375 40.113281 637.378906 40.535156 C 636.554688 41.023438 635.992188 41.710938 635.773438 42.644531 C 635.503906 43.699219 635.605469 44.710938 636.082031 45.691406 C 636.503906 46.585938 637.222656 47.160156 638.175781 47.417969 C 639.226562 47.695312 640.230469 47.570312 641.207031 47.097656 C 642.054688 46.6875 642.65625 46.046875 643.003906 45.175781 C 643.210938 44.664062 643.285156 44.117188 643.300781 43.476562 C 643.3125 43.359375 643.285156 43.15625 643.261719 42.953125 Z M 641.488281 45.523438 C 641.28125 46.214844 640.847656 46.660156 640.113281 46.765625 C 639.574219 46.839844 639.0625 46.714844 638.597656 46.40625 C 638.199219 46.136719 637.917969 45.78125 637.710938 45.359375 C 637.480469 44.910156 637.351562 44.4375 637.300781 43.953125 C 637.222656 43.351562 637.222656 42.761719 637.363281 42.160156 C 637.390625 42.042969 637.429688 41.925781 637.480469 41.816406 C 637.839844 40.921875 638.636719 40.511719 639.574219 40.714844 C 640.203125 40.855469 640.679688 41.203125 641.039062 41.726562 C 641.386719 42.238281 641.554688 42.800781 641.632812 43.410156 C 641.667969 43.65625 641.683594 43.910156 641.667969 44.128906 C 641.667969 44.625 641.632812 45.085938 641.480469 45.535156 Z M 641.488281 45.523438 "/>
</g>
</svg>
